<svg xmlns="http://www.w3.org/2000/svg" width="60" height="60" version="1.0" viewBox="0 0 45 45"><path d="m15.3 10.4-4.1 8.3 3.8 8.2c2.1 4.5 4 8.5 4.4 8.8 1.4 1.4.5-5.2-.9-6.7-2-2.2-1-4.9 1.6-4.3 2.4.7 3.4 4.4 2 7.1-.6 1.1-.8 2.7-.5 3.5.3.8.1 1.8-.5 2.1-.7.5-.7 1.5.1 3.1 1.3 2.8 2.3 3.2 3.2 1 .3-.9 0-1.5-.9-1.5-1.7 0-1.5-5.3.4-8.8.6-1.2 1.1-2.9 1.1-4s.7-2.2 1.5-2.6c1.1-.4 1.5.1 1.5 1.9 0 1.3-.4 2.7-1 3-.5.3-1 2.1-1 3.8 0 2.7.7 1.8 4-5.6l4.1-8.8-4.1-8.6c-4.2-9-6-10.8-3.4-3.4.8 2.4 1.2 5.2.9 6.2-.4 1-.2 1.9.3 1.9 1.4 0 2.2 3.9 1 4.6-.6.4-1.4.1-1.8-.6-.4-.7-1.2-1-1.8-.6-.5.3-1.5-.1-2.2-1-1.1-1.2-1-1.7.8-3 2.8-1.9 2.8-2.9-.3-6-1.7-1.7-2.5-2-2.5-1 0 .8-.3 2.3-.7 3.3-.6 1.6-.5 1.6 1 .5 2.9-2.4 4.2-.2 1.3 2.4-1.6 1.6-2.3 3-1.9 4.1.4 1.1.3 1.4-.5.9-.7-.4-1.2-.2-1.2.3 0 .6-.7 1.1-1.5 1.1-.9 0-1.5-.9-1.5-2.5s.6-2.5 1.6-2.5c1.2 0 1.4-.4.6-1.3-.6-.8-.5-2.8.3-6.2.7-2.8 1.2-5.1 1.1-5.2-.1-.1-2 3.5-4.3 8.1z"/></svg>
